<svg xmlns="http://www.w3.org/2000/svg" width="256" height="256" viewBox="0 0 256 256">
  <g fill="none" fill-rule="evenodd">
    <rect x="0" y="0" width="256" height="256" rx="16" fill="#ECEFF5"/>
    <path d="M64 128c0-36 28-64 64-64s64 28 64 64-28 72-64 72-64-36-64-72z" fill="#A8B0C8"/>
    <path d="M92 98c6-8 18-12 36-12s30 4 36 12" stroke="#2E2E2E" stroke-width="4" stroke-linecap="round"/>
    <circle cx="108" cy="128" r="8" fill="#2E2E2E"/>
    <circle cx="148" cy="128" r="8" fill="#2E2E2E"/>
    <path d="M120 156c6 6 16 6 22 0" stroke="#2E2E2E" stroke-width="3" stroke-linecap="round"/>
    <path d="M56 78c10-18 30-18 40 0" stroke="#2E2E2E" stroke-width="5" stroke-linecap="round"/>
    <path d="M200 78c-10-18-30-18-40 0" stroke="#2E2E2E" stroke-width="5" stroke-linecap="round"/>
  </g>
</svg>